<svg width="124" height="22" viewBox="0 0 124 22" fill="none" xmlns="http://www.w3.org/2000/svg">
<path d="M40.4498 1.808V18H38.2498V16.108C37.9271 16.768 37.4431 17.274 36.7978 17.626C36.1671 17.978 35.4265 18.154 34.5758 18.154C33.6225 18.154 32.7718 17.912 32.0238 17.428C31.2758 16.944 30.6891 16.2693 30.2638 15.404C29.8531 14.524 29.6478 13.512 29.6478 12.368C29.6478 11.224 29.8531 10.2193 30.2638 9.354C30.6745 8.48867 31.2465 7.82133 31.9798 7.352C32.7278 6.88267 33.5931 6.648 34.5758 6.648C35.4118 6.648 36.1451 6.824 36.7758 7.176C37.4211 7.528 37.9051 8.02667 38.2278 8.672V1.808H40.4498ZM35.0818 16.394C36.0938 16.394 36.8711 16.0493 37.4138 15.36C37.9711 14.656 38.2498 13.6733 38.2498 12.412C38.2498 11.1507 37.9711 10.1753 37.4138 9.486C36.8711 8.782 36.1011 8.43 35.1038 8.43C34.0918 8.43 33.2998 8.77467 32.7278 9.464C32.1705 10.1533 31.8918 11.1213 31.8918 12.368C31.8918 13.6293 32.1705 14.6193 32.7278 15.338C33.2998 16.042 34.0845 16.394 35.0818 16.394ZM53.6361 6.912V18H51.4361V16.108C51.1134 16.768 50.6294 17.274 49.9841 17.626C49.3534 17.978 48.6127 18.154 47.7621 18.154C46.7794 18.154 45.9141 17.9193 45.1661 17.45C44.4327 16.9807 43.8607 16.3207 43.4501 15.47C43.0394 14.6047 42.8341 13.6 42.8341 12.456C42.8341 11.312 43.0394 10.3 43.4501 9.42C43.8754 8.54 44.4621 7.858 45.2101 7.374C45.9581 6.89 46.8087 6.648 47.7621 6.648C48.6127 6.648 49.3534 6.83133 49.9841 7.198C50.6147 7.55 51.0987 8.056 51.4361 8.716V6.912H53.6361ZM48.2901 16.394C49.2874 16.394 50.0574 16.0493 50.6001 15.36C51.1574 14.656 51.4361 13.6733 51.4361 12.412C51.4361 11.136 51.1574 10.1533 50.6001 9.464C50.0574 8.77467 49.2801 8.43 48.2681 8.43C47.2707 8.43 46.4861 8.78933 45.9141 9.508C45.3567 10.212 45.0781 11.1947 45.0781 12.456C45.0781 13.7027 45.3567 14.6707 45.9141 15.36C46.4861 16.0493 47.2781 16.394 48.2901 16.394ZM59.5623 8.628V14.194C59.5623 14.9567 59.7236 15.4993 60.0463 15.822C60.3836 16.13 60.8456 16.284 61.4323 16.284C61.8136 16.284 62.2023 16.2253 62.5983 16.108V17.912C62.1143 18.0733 61.5643 18.154 60.9483 18.154C59.8043 18.154 58.917 17.8313 58.2863 17.186C57.6556 16.5407 57.3403 15.602 57.3403 14.37V8.628H55.1843V6.912H57.3403V4.14L59.5623 3.37V6.912H62.6203V8.628H59.5623ZM74.5945 6.912V18H72.3945V16.108C72.0718 16.768 71.5878 17.274 70.9425 17.626C70.3118 17.978 69.5712 18.154 68.7205 18.154C67.7378 18.154 66.8725 17.9193 66.1245 17.45C65.3912 16.9807 64.8192 16.3207 64.4085 15.47C63.9978 14.6047 63.7925 13.6 63.7925 12.456C63.7925 11.312 63.9978 10.3 64.4085 9.42C64.8338 8.54 65.4205 7.858 66.1685 7.374C66.9165 6.89 67.7672 6.648 68.7205 6.648C69.5712 6.648 70.3118 6.83133 70.9425 7.198C71.5732 7.55 72.0572 8.056 72.3945 8.716V6.912H74.5945ZM69.2485 16.394C70.2458 16.394 71.0158 16.0493 71.5585 15.36C72.1158 14.656 72.3945 13.6733 72.3945 12.412C72.3945 11.136 72.1158 10.1533 71.5585 9.464C71.0158 8.77467 70.2385 8.43 69.2265 8.43C68.2292 8.43 67.4445 8.78933 66.8725 9.508C66.3152 10.212 66.0365 11.1947 66.0365 12.456C66.0365 13.7027 66.3152 14.6707 66.8725 15.36C67.4445 16.0493 68.2365 16.394 69.2485 16.394ZM82.3247 3.59C81.1074 3.59 80.4987 4.28667 80.4987 5.68V6.912H83.0947V8.628H80.4987V18H78.2767V8.628H76.1427V6.912H78.2767V5.504C78.2767 4.272 78.5847 3.33333 79.2007 2.688C79.8314 2.04267 80.7114 1.72 81.8407 1.72C82.4274 1.72 82.9627 1.79333 83.4467 1.94V3.766C83.0507 3.64867 82.6767 3.59 82.3247 3.59ZM89.7982 18.154C88.7129 18.154 87.7595 17.9193 86.9382 17.45C86.1169 16.9807 85.4789 16.3133 85.0242 15.448C84.5842 14.5827 84.3642 13.5707 84.3642 12.412C84.3642 11.2533 84.5842 10.2413 85.0242 9.376C85.4789 8.496 86.1169 7.82133 86.9382 7.352C87.7595 6.88267 88.7129 6.648 89.7982 6.648C90.8689 6.648 91.8149 6.88267 92.6362 7.352C93.4575 7.82133 94.0882 8.496 94.5282 9.376C94.9829 10.2413 95.2102 11.2533 95.2102 12.412C95.2102 13.5707 94.9829 14.5827 94.5282 15.448C94.0882 16.3133 93.4575 16.9807 92.6362 17.45C91.8149 17.9193 90.8689 18.154 89.7982 18.154ZM89.7762 16.394C90.8029 16.394 91.5875 16.0567 92.1302 15.382C92.6729 14.7073 92.9442 13.7173 92.9442 12.412C92.9442 11.136 92.6655 10.1533 92.1082 9.464C91.5655 8.77467 90.7955 8.43 89.7982 8.43C88.7862 8.43 88.0015 8.77467 87.4442 9.464C86.8869 10.1533 86.6082 11.136 86.6082 12.412C86.6082 13.7173 86.8795 14.7073 87.4222 15.382C87.9795 16.0567 88.7642 16.394 89.7762 16.394ZM103.109 6.648C103.447 6.648 103.799 6.69933 104.165 6.802L104.121 8.826C103.725 8.67933 103.293 8.606 102.823 8.606C101.811 8.606 101.049 8.914 100.535 9.53C100.037 10.1313 99.7874 10.894 99.7874 11.818V18H97.5874V10.036C97.5874 8.87733 97.5287 7.836 97.4114 6.912H99.4794L99.6774 8.914C99.9707 8.18067 100.425 7.62333 101.041 7.242C101.657 6.846 102.347 6.648 103.109 6.648ZM118.289 6.648C120.753 6.648 121.985 8.12933 121.985 11.092V18H119.763V11.202C119.763 10.2487 119.594 9.552 119.257 9.112C118.934 8.672 118.406 8.452 117.673 8.452C116.822 8.452 116.148 8.74533 115.649 9.332C115.165 9.91867 114.923 10.718 114.923 11.73V18H112.701V11.202C112.701 10.2487 112.532 9.552 112.195 9.112C111.872 8.672 111.344 8.452 110.611 8.452C109.76 8.452 109.086 8.74533 108.587 9.332C108.088 9.91867 107.839 10.718 107.839 11.73V18H105.639V10.036C105.639 8.87733 105.58 7.836 105.463 6.912H107.531L107.729 8.76C108.052 8.08533 108.514 7.56467 109.115 7.198C109.716 6.83133 110.42 6.648 111.227 6.648C112.943 6.648 114.065 7.35933 114.593 8.782C114.93 8.122 115.422 7.60133 116.067 7.22C116.727 6.83867 117.468 6.648 118.289 6.648Z" fill="#343434"/>
<path fill-rule="evenodd" clip-rule="evenodd" d="M13.0476 22C19.0965 22 24 17.0751 24 11C24 4.92487 19.0965 0 13.0476 0H0V11V22H5V19H7V14H4V9H6V4H11H16V9H11H9V14H14V19H10V22H13.0476Z" fill="#343434"/>
</svg>
