<svg width="1120" height="960" viewBox="0 0 1120 960" fill="none" xmlns="http://www.w3.org/2000/svg">
<path d="M459 195.478L872 328.978L872 583.978L221 457.352L165 340.978L459 195.478Z" fill="url(#paint0_linear)"/>
<path d="M353 160.978L871 328.978L871 665.978L221 457.352L165 340.978L353 160.978Z" fill="url(#paint1_linear)"/>
<path d="M305 145.478L871 328.978L871 756.478L221 457.352L165 340.978L305 145.478Z" fill="url(#paint2_linear)"/>
<rect x="275.312" y="540.653" width="6" height="5.11248" transform="rotate(176.388 275.312 540.653)" fill="#FF5881"/>
<rect x="226.95" y="490.478" width="6" height="5.11248" transform="rotate(176.388 226.95 490.478)" fill="#FF5881"/>
<rect x="178.589" y="440.306" width="6" height="5.11248" transform="rotate(176.388 178.589 440.306)" fill="#FF5881"/>
<rect x="130.228" y="390.133" width="6" height="5.11248" transform="rotate(176.388 130.228 390.133)" fill="#FF5881"/>
<rect x="81.8667" y="339.961" width="6" height="5.11248" transform="rotate(176.388 81.8667 339.961)" fill="#FF5881"/>
<rect x="176.778" y="538.841" width="6" height="5.11248" transform="rotate(176.388 176.778 538.841)" fill="#FF5881"/>
<rect x="128.417" y="488.669" width="6" height="5.11248" transform="rotate(176.388 128.417 488.669)" fill="#FF5881"/>
<rect x="80.0552" y="438.495" width="6" height="5.11248" transform="rotate(176.388 80.0552 438.495)" fill="#FF5881"/>
<rect x="325.484" y="492.291" width="6" height="5.11248" transform="rotate(176.388 325.484 492.291)" fill="#FF5881"/>
<rect x="277.123" y="442.117" width="6" height="5.11248" transform="rotate(176.388 277.123 442.117)" fill="#FF5881"/>
<rect x="228.762" y="391.946" width="6" height="5.11248" transform="rotate(176.388 228.762 391.946)" fill="#FF5881"/>
<rect x="180.4" y="341.773" width="6" height="5.11248" transform="rotate(176.388 180.4 341.773)" fill="#FF5881"/>
<rect x="132.039" y="291.6" width="6" height="5.11248" transform="rotate(176.388 132.039 291.6)" fill="#FF5881"/>
<rect x="375.657" y="443.93" width="6" height="5.11248" transform="rotate(176.388 375.657 443.93)" fill="#FF5881"/>
<rect x="327.296" y="393.758" width="6" height="5.11248" transform="rotate(176.388 327.296 393.758)" fill="#FF5881"/>
<rect x="278.935" y="343.583" width="6" height="5.11248" transform="rotate(176.388 278.935 343.583)" fill="#FF5881"/>
<rect x="230.573" y="293.412" width="6" height="5.11248" transform="rotate(176.388 230.573 293.412)" fill="#FF5881"/>
<rect x="182.212" y="243.238" width="6" height="5.11248" transform="rotate(176.388 182.212 243.238)" fill="#FF5881"/>
<rect x="329.107" y="295.222" width="6" height="5.11248" transform="rotate(176.388 329.107 295.222)" fill="#FF5881"/>
<rect x="376.985" y="344.894" width="6" height="5.11248" transform="rotate(176.388 376.985 344.894)" fill="#FF5881"/>
<rect x="280.746" y="245.05" width="6" height="5.11248" transform="rotate(176.388 280.746 245.05)" fill="#FF5881"/>
<g opacity="0.2">
<path d="M959.248 431.503L969.01 243.001L805.853 220.66L797.486 351.913H830.257V420.333L883.945 409.162V469.203L959.248 431.503Z" fill="url(#paint3_radial)"/>
<path d="M841.373 290.684L820.309 283.621L820.309 298.563L842.11 298.563L841.373 290.684Z" fill="#4455B0"/>
<path d="M959.248 430.107L848.789 453.208L755.173 534.953L800.274 661.894L811.431 909.042L910.44 931.383L988.927 898.719L1012.24 830.848L1024.79 768.014L1042.92 561.36L959.248 430.107Z" fill="url(#paint4_radial)"/>
<path d="M904.863 258.361L963.432 371.462L988.533 210.886L744.495 175.978L867.211 290.476L904.863 258.361Z" fill="#4455B0"/>
<path d="M401.289 401.857L381.958 413.417L373.105 434.146L378.112 456.127L395.065 470.963L417.49 472.988L436.821 461.428L445.674 440.698L440.667 418.718L423.714 403.882L401.289 401.857Z" fill="#FF5881"/>
<path d="M470.328 484.73L429.195 492.871L397.609 484.73L367.573 465.735L362.83 451.489L407.094 464.152L432.388 462.57L440.292 459.404L408.675 440.409L424.484 437.243L462.424 451.489L470.328 484.73Z" fill="url(#paint5_radial)"/>
<path d="M631.54 756.845L856.055 663.292L799.431 497.467L642.564 628.384L469.777 484.564L429.337 492.942L631.54 756.845Z" fill="url(#paint6_radial)"/>
<path d="M631.54 756.845L856.055 663.292L799.431 497.467L642.564 628.384L469.777 484.564L429.337 492.942L631.54 756.845Z" fill="url(#paint7_linear)"/>
</g>
<g opacity="0.45">
<path d="M866.006 430.503L875.768 242.001L712.61 219.66L704.243 350.913H737.014V419.333L790.703 408.162V468.203L866.006 430.503Z" fill="url(#paint8_radial)"/>
<path d="M748.131 289.684L727.067 282.621L727.067 297.563L748.868 297.563L748.131 289.684Z" fill="#4455B0"/>
<path d="M866.006 429.107L755.546 452.208L661.931 533.953L707.032 660.894L718.188 908.042L817.198 930.383L895.685 897.719L918.997 829.848L931.548 767.014L949.676 560.36L866.006 429.107Z" fill="url(#paint9_radial)"/>
<path d="M811.621 257.361L870.19 370.462L895.291 209.886L651.253 174.978L773.969 289.476L811.621 257.361Z" fill="#4455B0"/>
<path d="M308.502 359.967L278.709 377.784L265.064 409.733L272.781 443.611L298.911 466.477L333.473 469.597L363.267 451.78L376.911 419.831L369.194 385.953L343.065 363.087L308.502 359.967Z" fill="#FF5881"/>
<path d="M377.086 483.73L335.953 491.871L304.367 483.73L274.331 464.735L269.588 450.489L313.852 463.152L339.146 461.57L347.05 458.404L315.433 439.409L331.241 436.243L369.182 450.489L377.086 483.73Z" fill="url(#paint10_radial)"/>
<path d="M538.298 755.845L762.813 662.292L706.189 496.467L549.322 627.384L376.535 483.564L336.094 491.942L538.298 755.845Z" fill="url(#paint11_radial)"/>
<path d="M538.298 755.845L762.813 662.292L706.189 496.467L549.322 627.384L376.535 483.564L336.094 491.942L538.298 755.845Z" fill="url(#paint12_linear)"/>
</g>
<path d="M776.006 430.173L785.768 241.914L622.61 219.602L614.243 350.686H647.014V419.017L700.703 407.86V467.824L776.006 430.173Z" fill="url(#paint13_radial)"/>
<path d="M658.131 289.535L637.067 282.481L637.067 297.405L658.868 297.405L658.131 289.535Z" fill="#4455B0"/>
<path d="M776.006 428.778L665.546 451.849L571.93 533.489L617.032 660.266L628.188 907.093L727.198 929.405L805.685 896.784L828.997 829.001L841.548 766.248L859.676 559.861L776.006 428.778Z" fill="url(#paint14_radial)"/>
<path d="M721.621 257.254L780.19 370.209L805.291 209.841L561.253 174.978L683.969 289.328L721.621 257.254Z" fill="#4455B0"/>
<path d="M206.137 316.059L164.701 340.807L145.724 385.183L156.456 432.239L192.797 463.999L240.866 468.334L282.302 443.586L301.278 399.21L290.546 352.154L254.205 320.394L206.137 316.059Z" fill="#FF5881"/>
<path d="M287.086 483.33L245.953 491.461L214.367 483.33L184.331 464.361L177 450.133L223.852 462.779L249.145 461.199L257.05 458.037L225.433 439.067L241.241 435.905L279.182 450.133L287.086 483.33Z" fill="url(#paint15_radial)"/>
<path d="M448.298 755.093L672.813 661.661L616.189 496.051L459.322 626.798L286.535 483.164L246.094 491.531L448.298 755.093Z" fill="url(#paint16_radial)"/>
<path d="M448.298 755.093L672.813 661.661L616.189 496.051L459.322 626.798L286.535 483.164L246.094 491.531L448.298 755.093Z" fill="url(#paint17_linear)"/>
<rect x="745.476" y="680.463" width="21.8922" height="5.8099" transform="rotate(110.673 745.476 680.463)" fill="#2F419B"/>
<rect x="798.415" y="656.529" width="21.8922" height="5.8099" transform="rotate(110.673 798.415 656.529)" fill="#2F419B"/>
<rect x="851.355" y="632.595" width="21.8922" height="5.8099" transform="rotate(110.673 851.355 632.595)" fill="#2F419B"/>
<rect x="774.481" y="603.589" width="21.8922" height="5.8099" transform="rotate(110.673 774.481 603.589)" fill="#2F419B"/>
<rect x="827.422" y="579.655" width="21.8922" height="5.8099" transform="rotate(110.673 827.422 579.655)" fill="#2F419B"/>
<rect x="904.296" y="608.661" width="21.8922" height="5.8099" transform="rotate(110.673 904.296 608.661)" fill="#2F419B"/>
<rect x="769.409" y="733.403" width="21.8922" height="5.8099" transform="rotate(110.673 769.409 733.403)" fill="#2F419B"/>
<rect x="822.35" y="709.469" width="21.8922" height="5.8099" transform="rotate(110.673 822.35 709.469)" fill="#2F419B"/>
<rect x="875.29" y="685.535" width="21.8922" height="5.8099" transform="rotate(110.673 875.29 685.535)" fill="#2F419B"/>
<rect x="928.229" y="661.601" width="21.8922" height="5.8099" transform="rotate(110.673 928.229 661.601)" fill="#2F419B"/>
<rect x="793.343" y="786.343" width="21.8922" height="5.8099" transform="rotate(110.673 793.343 786.343)" fill="#2F419B"/>
<rect x="846.283" y="762.41" width="21.8922" height="5.8099" transform="rotate(110.673 846.283 762.41)" fill="#2F419B"/>
<rect x="899.224" y="738.476" width="21.8922" height="5.8099" transform="rotate(110.673 899.224 738.476)" fill="#2F419B"/>
<rect x="952.164" y="714.542" width="21.8922" height="5.8099" transform="rotate(110.673 952.164 714.542)" fill="#2F419B"/>
<rect x="870.218" y="815.35" width="21.8922" height="5.8099" transform="rotate(110.673 870.218 815.35)" fill="#2F419B"/>
<rect x="923.157" y="791.416" width="21.8922" height="5.8099" transform="rotate(110.673 923.157 791.416)" fill="#2F419B"/>
<defs>
<linearGradient id="paint0_linear" x1="161" y1="415.978" x2="726" y2="161.978" gradientUnits="userSpaceOnUse">
<stop stop-color="#FF5881" stop-opacity="0.25"/>
<stop offset="1" stop-color="#FF5881" stop-opacity="0"/>
</linearGradient>
<linearGradient id="paint1_linear" x1="161" y1="415.978" x2="726" y2="161.978" gradientUnits="userSpaceOnUse">
<stop stop-color="#FF5881" stop-opacity="0.25"/>
<stop offset="1" stop-color="#FF5881" stop-opacity="0"/>
</linearGradient>
<linearGradient id="paint2_linear" x1="161" y1="415.978" x2="726" y2="161.978" gradientUnits="userSpaceOnUse">
<stop stop-color="#FF5881" stop-opacity="0.25"/>
<stop offset="1" stop-color="#FF5881" stop-opacity="0"/>
</linearGradient>
<radialGradient id="paint3_radial" cx="0" cy="0" r="1" gradientUnits="userSpaceOnUse" gradientTransform="translate(851.871 262.549) rotate(72.6859) scale(253.027 178.813)">
<stop offset="0.436464" stop-color="#EEA6B8"/>
<stop offset="1" stop-color="#2F409B"/>
</radialGradient>
<radialGradient id="paint4_radial" cx="0" cy="0" r="1" gradientUnits="userSpaceOnUse" gradientTransform="translate(801.669 516.678) rotate(56.1626) scale(370.975 277.144)">
<stop offset="0.37719" stop-color="#FF5881"/>
<stop offset="1" stop-color="#2F409B"/>
</radialGradient>
<radialGradient id="paint5_radial" cx="0" cy="0" r="1" gradientUnits="userSpaceOnUse" gradientTransform="translate(435.55 437.243) rotate(116.91) scale(108.281 83.1857)">
<stop offset="0.436464" stop-color="#EEA6B8"/>
<stop offset="1" stop-color="#2F409B"/>
</radialGradient>
<radialGradient id="paint6_radial" cx="0" cy="0" r="1" gradientUnits="userSpaceOnUse" gradientTransform="translate(772.385 511.094) rotate(134.273) scale(491.421 416.752)">
<stop offset="0.37719" stop-color="#FF5881"/>
<stop offset="1" stop-color="#2F409B"/>
</radialGradient>
<linearGradient id="paint7_linear" x1="697.081" y1="569.739" x2="692.887" y2="747.07" gradientUnits="userSpaceOnUse">
<stop offset="0.37719" stop-color="#FF5881" stop-opacity="0"/>
<stop offset="1" stop-color="#2F409B"/>
</linearGradient>
<radialGradient id="paint8_radial" cx="0" cy="0" r="1" gradientUnits="userSpaceOnUse" gradientTransform="translate(758.629 261.549) rotate(72.6859) scale(253.027 178.813)">
<stop offset="0.436464" stop-color="#EEA6B8"/>
<stop offset="1" stop-color="#2F409B"/>
</radialGradient>
<radialGradient id="paint9_radial" cx="0" cy="0" r="1" gradientUnits="userSpaceOnUse" gradientTransform="translate(708.427 515.678) rotate(56.1626) scale(370.975 277.144)">
<stop offset="0.37719" stop-color="#FF5881"/>
<stop offset="1" stop-color="#2F409B"/>
</radialGradient>
<radialGradient id="paint10_radial" cx="0" cy="0" r="1" gradientUnits="userSpaceOnUse" gradientTransform="translate(342.307 436.243) rotate(116.91) scale(108.281 83.1857)">
<stop offset="0.436464" stop-color="#EEA6B8"/>
<stop offset="1" stop-color="#2F409B"/>
</radialGradient>
<radialGradient id="paint11_radial" cx="0" cy="0" r="1" gradientUnits="userSpaceOnUse" gradientTransform="translate(679.143 510.094) rotate(134.273) scale(491.421 416.752)">
<stop offset="0.37719" stop-color="#FF5881"/>
<stop offset="1" stop-color="#2F409B"/>
</radialGradient>
<linearGradient id="paint12_linear" x1="603.839" y1="568.739" x2="599.645" y2="746.07" gradientUnits="userSpaceOnUse">
<stop offset="0.37719" stop-color="#FF5881" stop-opacity="0"/>
<stop offset="1" stop-color="#2F409B"/>
</linearGradient>
<radialGradient id="paint13_radial" cx="0" cy="0" r="1" gradientUnits="userSpaceOnUse" gradientTransform="translate(668.629 261.437) rotate(72.6648) scale(252.729 178.792)">
<stop offset="0.436464" stop-color="#EEA6B8"/>
<stop offset="1" stop-color="#2F409B"/>
</radialGradient>
<radialGradient id="paint14_radial" cx="0" cy="0" r="1" gradientUnits="userSpaceOnUse" gradientTransform="translate(618.427 515.237) rotate(56.1283) scale(370.643 277.032)">
<stop offset="0.37719" stop-color="#FF5881"/>
<stop offset="1" stop-color="#2F409B"/>
</radialGradient>
<radialGradient id="paint15_radial" cx="0" cy="0" r="1" gradientUnits="userSpaceOnUse" gradientTransform="translate(252.307 435.905) rotate(116.94) scale(108.17 83.1637)">
<stop offset="0.436464" stop-color="#EEA6B8"/>
<stop offset="1" stop-color="#2F409B"/>
</radialGradient>
<radialGradient id="paint16_radial" cx="0" cy="0" r="1" gradientUnits="userSpaceOnUse" gradientTransform="translate(589.143 509.66) rotate(134.31) scale(491.095 416.489)">
<stop offset="0.37719" stop-color="#FF5881"/>
<stop offset="1" stop-color="#2F409B"/>
</radialGradient>
<linearGradient id="paint17_linear" x1="513.839" y1="568.229" x2="509.656" y2="745.331" gradientUnits="userSpaceOnUse">
<stop offset="0.37719" stop-color="#FF5881" stop-opacity="0"/>
<stop offset="1" stop-color="#2F409B"/>
</linearGradient>
</defs>
</svg>
