<svg width="1017" height="324" viewBox="0 0 1017 324" fill="none" xmlns="http://www.w3.org/2000/svg">
<path d="M310.49 168.05C310.49 179.1 302.33 187.26 292.13 187.26C281.93 187.26 273.77 179.61 273.77 168.05C273.77 157 281.93 149.18 292.13 149.18C302.33 149.18 310.49 156.49 310.49 168.05ZM334.46 85.43H311V138.3C307.09 131.33 297.91 126.91 287.71 126.91C277.17 126.91 268.16 130.82 260.51 138.47C253.03 146.12 249.29 156.15 249.29 168.56C249.29 180.63 253.03 190.66 260.51 198.31C268.16 205.96 277.17 209.7 287.71 209.7C297.91 209.7 307.09 205.45 311 198.14V208H334.46V85.43ZM438.426 208V128.61H414.966V137.45C409.526 129.8 399.326 126.91 391.846 126.91C381.136 126.91 371.786 130.82 363.626 138.47C355.466 146.12 351.386 155.98 351.386 168.22C351.386 180.46 355.466 190.49 363.626 198.14C371.786 205.79 381.136 209.53 391.846 209.53C395.586 209.53 399.836 208.68 404.426 206.81C409.186 204.94 412.756 202.39 414.966 198.99V208H438.426ZM395.756 187.09C390.486 187.09 385.896 185.39 381.816 181.82C377.906 178.25 375.866 173.66 375.866 168.22C375.866 162.78 377.906 158.36 381.816 154.79C385.896 151.22 390.486 149.35 395.756 149.35C405.956 149.35 414.966 156.83 414.966 168.22C414.966 179.61 405.956 187.09 395.756 187.09ZM491.177 98.18H467.717V128.61H453.267V147.31H467.717V208H491.177V147.31H507.837V128.61H491.177V98.18ZM603.445 208V128.61H579.985V137.45C574.545 129.8 564.345 126.91 556.865 126.91C546.155 126.91 536.805 130.82 528.645 138.47C520.485 146.12 516.405 155.98 516.405 168.22C516.405 180.46 520.485 190.49 528.645 198.14C536.805 205.79 546.155 209.53 556.865 209.53C560.605 209.53 564.855 208.68 569.445 206.81C574.205 204.94 577.775 202.39 579.985 198.99V208H603.445ZM560.775 187.09C555.505 187.09 550.915 185.39 546.835 181.82C542.925 178.25 540.885 173.66 540.885 168.22C540.885 162.78 542.925 158.36 546.835 154.79C550.915 151.22 555.505 149.35 560.775 149.35C570.975 149.35 579.985 156.83 579.985 168.22C579.985 179.61 570.975 187.09 560.775 187.09ZM669.117 85.43C646.167 85.43 633.247 98.86 633.247 123.17V128.61H618.287V147.31H633.247V208H657.047V147.31H673.027V128.61H657.047V123.17C657.047 113.14 661.127 108.04 669.117 108.04H677.787V85.43H669.117ZM722.897 186.24C712.867 186.24 705.047 178.93 705.047 168.05C705.047 157.68 712.867 150.03 722.897 150.03C732.927 150.03 740.917 157.68 740.917 168.05C740.917 178.93 733.097 186.24 722.897 186.24ZM752.137 197.97C760.127 190.32 764.207 180.29 764.207 168.05C764.207 155.81 760.127 145.95 752.137 138.3C744.147 130.65 734.457 126.91 722.897 126.91C711.337 126.91 701.647 130.65 693.657 138.3C685.667 145.95 681.757 155.81 681.757 168.05C681.757 180.29 685.667 190.32 693.657 197.97C701.647 205.62 711.337 209.36 722.897 209.36C734.457 209.36 744.147 205.62 752.137 197.97ZM804.776 180.29C804.776 159.21 811.406 148.67 824.496 148.67C829.256 148.67 833.336 149.52 836.566 151.05L840.816 129.8C836.906 127.93 832.486 126.91 827.216 126.91C818.206 126.91 808.686 134.05 804.776 147.82V128.61H781.146V208H804.776V180.29ZM940.75 149.86C948.23 149.86 953.84 155.64 953.84 165.67V208H977.3V162.95C977.3 139.32 965.91 126.91 946.7 126.91C936.67 126.91 928.68 131.67 922.9 141.02C918.48 131.67 909.98 127.08 897.4 127.08C888.56 127.08 880.23 132.01 876.66 140.17V128.61H853.03V208H876.66V166.01C876.66 154.62 882.44 149.86 890.43 149.86C897.74 149.86 903.35 155.64 903.52 165.16V208H927.15V166.01C927.15 155.13 932.59 149.86 940.75 149.86Z" fill="#2F2D44"/>
<path d="M82.3701 201.426L122.333 178.83L142.315 190.684L163.037 178.83L203 201.056L142.315 236V235.875L82.3701 201.426Z" fill="#2F2D44"/>
<path d="M82 148.826L142.685 114.376L203 149.937V194.017L142.685 159.938L82.37 194.017L82 148.826Z" fill="#2F2D44"/>
<path d="M164.147 93.4489V119.933L203 142.528L202.63 74L164.147 93.4489Z" fill="#2F2D44"/>
</svg>
